<svg width="50" height="50" viewBox="0 0 50 50" fill="none" xmlns="http://www.w3.org/2000/svg">
<g id="keyboard">
<path id="icon" d="M8.33317 39.5834C7.18734 39.5834 6.20643 39.1754 5.39046 38.3595C4.57449 37.5435 4.1665 36.5626 4.1665 35.4167V14.5834C4.1665 13.4376 4.57449 12.4567 5.39046 11.6407C6.20643 10.8247 7.18734 10.4167 8.33317 10.4167H41.6665C42.8123 10.4167 43.7932 10.8247 44.6092 11.6407C45.4252 12.4567 45.8332 13.4376 45.8332 14.5834V35.4167C45.8332 36.5626 45.4252 37.5435 44.6092 38.3595C43.7932 39.1754 42.8123 39.5834 41.6665 39.5834H8.33317ZM8.33317 35.4167H41.6665V14.5834H8.33317V35.4167ZM16.6665 33.3334H33.3332V29.1667H16.6665V33.3334ZM10.4165 27.0834H14.5832V22.9167H10.4165V27.0834ZM16.6665 27.0834H20.8332V22.9167H16.6665V27.0834ZM22.9165 27.0834H27.0832V22.9167H22.9165V27.0834ZM29.1665 27.0834H33.3332V22.9167H29.1665V27.0834ZM35.4165 27.0834H39.5832V22.9167H35.4165V27.0834ZM10.4165 20.8334H14.5832V16.6667H10.4165V20.8334ZM16.6665 20.8334H20.8332V16.6667H16.6665V20.8334ZM22.9165 20.8334H27.0832V16.6667H22.9165V20.8334ZM29.1665 20.8334H33.3332V16.6667H29.1665V20.8334ZM35.4165 20.8334H39.5832V16.6667H35.4165V20.8334Z" fill="#1D1B20"/>
</g>
</svg>
