<svg width="45" height="45" viewBox="0 0 45 45" fill="none" xmlns="http://www.w3.org/2000/svg">
<g id="settings">
<path id="icon" d="M17.3438 41.25L16.5938 35.25C16.1875 35.0938 15.8047 34.9062 15.4453 34.6875C15.0859 34.4688 14.7344 34.2344 14.3906 33.9844L8.8125 36.3281L3.65625 27.4219L8.48438 23.7656C8.45312 23.5469 8.4375 23.3359 8.4375 23.1328V21.8672C8.4375 21.6641 8.45312 21.4531 8.48438 21.2344L3.65625 17.5781L8.8125 8.67188L14.3906 11.0156C14.7344 10.7656 15.0938 10.5312 15.4688 10.3125C15.8438 10.0938 16.2188 9.90625 16.5938 9.75L17.3438 3.75H27.6562L28.4062 9.75C28.8125 9.90625 29.1953 10.0938 29.5547 10.3125C29.9141 10.5312 30.2656 10.7656 30.6094 11.0156L36.1875 8.67188L41.3438 17.5781L36.5156 21.2344C36.5469 21.4531 36.5625 21.6641 36.5625 21.8672V23.1328C36.5625 23.3359 36.5312 23.5469 36.4688 23.7656L41.2969 27.4219L36.1406 36.3281L30.6094 33.9844C30.2656 34.2344 29.9062 34.4688 29.5312 34.6875C29.1562 34.9062 28.7812 35.0938 28.4062 35.25L27.6562 41.25H17.3438ZM20.625 37.5H24.3281L24.9844 32.5312C25.9531 32.2812 26.8516 31.9141 27.6797 31.4297C28.5078 30.9453 29.2656 30.3594 29.9531 29.6719L34.5938 31.5938L36.4219 28.4063L32.3906 25.3594C32.5469 24.9219 32.6562 24.4609 32.7188 23.9766C32.7812 23.4922 32.8125 23 32.8125 22.5C32.8125 22 32.7812 21.5078 32.7188 21.0234C32.6562 20.5391 32.5469 20.0781 32.3906 19.6406L36.4219 16.5938L34.5938 13.4062L29.9531 15.375C29.2656 14.6563 28.5078 14.0547 27.6797 13.5703C26.8516 13.0859 25.9531 12.7188 24.9844 12.4688L24.375 7.5H20.6719L20.0156 12.4688C19.0469 12.7188 18.1484 13.0859 17.3203 13.5703C16.4922 14.0547 15.7344 14.6406 15.0469 15.3281L10.4063 13.4062L8.57812 16.5938L12.6094 19.5938C12.4531 20.0625 12.3438 20.5312 12.2812 21C12.2188 21.4688 12.1875 21.9688 12.1875 22.5C12.1875 23 12.2188 23.4844 12.2812 23.9531C12.3438 24.4219 12.4531 24.8906 12.6094 25.3594L8.57812 28.4063L10.4063 31.5938L15.0469 29.625C15.7344 30.3438 16.4922 30.9453 17.3203 31.4297C18.1484 31.9141 19.0469 32.2812 20.0156 32.5312L20.625 37.5ZM22.5938 29.0625C24.4062 29.0625 25.9531 28.4219 27.2344 27.1406C28.5156 25.8594 29.1562 24.3125 29.1562 22.5C29.1562 20.6875 28.5156 19.1406 27.2344 17.8594C25.9531 16.5781 24.4062 15.9375 22.5938 15.9375C20.75 15.9375 19.1953 16.5781 17.9297 17.8594C16.6641 19.1406 16.0312 20.6875 16.0312 22.5C16.0312 24.3125 16.6641 25.8594 17.9297 27.1406C19.1953 28.4219 20.75 29.0625 22.5938 29.0625Z" fill="#262626"/>
</g>
</svg>
